<svg width="144" height="144" xmlns="http://www.w3.org/2000/svg" preserveAspectRatio="xMidYMid meet">
 <metadata>Created by potrace 1.16, written by Peter Selinger 2001-2019</metadata>

 <g>
  <title>background</title>
  <rect x="-1" y="-1" width="146" height="146" id="canvas_background" fill="none"/>
 </g>
 <g>
  <title>Layer 1</title>
  <ellipse fill="#ffffff" stroke-width="1.5" cx="72.5" cy="82.26304" id="svg_7" rx="49" ry="48.19008"/>
  <g transform="translate(0,144) scale(0.10000000149011612,-0.10000000149011612) " fill="#000000" id="svg_1">
   <path d="m345,1280c-94,-22 -155,-96 -155,-188c0,-38 6,-65 21,-88l20,-34l-35,-77c-50,-113 -63,-199 -42,-299c24,-119 67,-195 166,-294c59,-59 105,-95 150,-117c171,-85 319,-84 490,2c123,62 133,84 63,138l-36,27l-41,-25c-151,-95 -277,-98 -438,-13c-78,41 -171,140 -210,224c-26,56 -31,79 -31,140c0,62 5,83 32,139c137,279 521,347 746,134c53,-50 125,-170 125,-208c0,-35 30,-61 69,-61c76,0 79,52 12,198l-42,90l22,41c30,59 24,145 -15,195c-35,47 -93,76 -151,76c-57,0 -96,-19 -131,-65l-26,-35l-188,0l-188,0l-26,35c-41,54 -103,79 -161,65z" id="svg_2"/>
   <path d="m507,985c-169,-60 -178,-335 -11,-335c52,0 87,16 126,57c80,84 76,238 -8,278c-39,18 -57,18 -107,0z" id="svg_3"/>
   <path d="m824,988c-56,-27 -81,-138 -48,-216c32,-78 95,-122 174,-122c85,0 119,55 108,171c-12,119 -142,212 -234,167z" id="svg_4"/>
   <path d="m728,599c-24,-13 -23,-54 2,-94c17,-28 18,-34 5,-39c-18,-7 -21,-76 -3,-94c15,-15 63,-16 90,-1c41,22 60,112 37,178c-17,50 -87,76 -131,50z" id="svg_5"/>
   <path d="m1056,600c-38,-12 -46,-25 -46,-84c0,-92 69,-187 145,-202c48,-9 116,33 163,101c31,45 34,55 30,103c-3,29 -10,58 -16,64c-25,25 -211,37 -276,18z" id="svg_6"/>
  </g>
  <ellipse transform="rotate(92.22396087646484 74.5,97.45312500000001) " ry="16" rx="12" id="svg_8" cy="97.45313" cx="74.5" stroke-width="10.5" stroke="#000" fill="#fff"/>
 </g>
</svg>