<svg id="svg" version="1.1" xmlns="http://www.w3.org/2000/svg" xmlns:xlink="http://www.w3.org/1999/xlink" width="400" height="400" viewBox="0, 0, 400,400"><g id="svgg"><path id="path0" d="M68.303 55.872 C 51.229 73.976,47.601 101.854,60.469 116.073 C 67.068 123.365,66.567 126.033,53.802 151.578 C -2.720 264.687,142.240 404.547,255.957 346.621 C 300.310 324.028,302.259 321.685,286.899 309.437 L 273.972 299.129 252.391 312.545 C 167.317 365.430,38.928 260.176,79.513 170.821 C 129.086 61.676,295.109 71.252,325.535 185.011 C 330.339 202.972,331.841 204.444,345.366 204.444 C 364.883 204.444,365.119 189.442,346.198 151.578 C 333.433 126.033,332.932 123.365,339.531 116.073 C 343.662 111.509,346.667 100.445,346.667 89.798 C 346.667 47.233,291.150 22.406,265.126 53.333 L 253.907 66.667 200.000 66.667 L 146.093 66.667 134.874 53.333 C 117.730 32.960,88.874 34.060,68.303 55.872 M120.460 135.710 C 93.326 166.615,104.167 213.333,138.474 213.333 C 176.352 213.333,201.950 161.575,179.748 129.878 C 167.927 113.001,137.797 115.965,120.460 135.710 M220.252 129.878 C 198.050 161.575,223.648 213.333,261.526 213.333 C 284.328 213.333,293.333 201.773,293.333 172.499 C 293.333 130.057,241.358 99.745,220.252 129.878 M155.556 142.222 C 155.556 144.667,151.556 146.667,146.667 146.667 C 141.778 146.667,137.778 144.667,137.778 142.222 C 137.778 139.778,141.778 137.778,146.667 137.778 C 151.556 137.778,155.556 139.778,155.556 142.222 M262.222 142.222 C 262.222 144.667,258.222 146.667,253.333 146.667 C 248.444 146.667,244.444 144.667,244.444 142.222 C 244.444 139.778,248.444 137.778,253.333 137.778 C 258.222 137.778,262.222 139.778,262.222 142.222 M198.692 235.634 C 197.402 240.566,199.169 247.423,202.618 250.872 C 209.896 258.150,210.881 266.667,204.444 266.667 C 202.000 266.667,200.000 272.667,200.000 280.000 C 200.000 296.013,219.981 299.199,232.644 285.206 C 242.796 273.988,242.336 243.492,231.872 234.022 C 220.298 223.548,201.615 224.455,198.692 235.634 M284.482 235.486 C 271.020 260.639,298.298 306.667,326.667 306.667 C 343.610 306.667,373.333 275.781,373.333 258.174 C 373.333 230.272,368.585 227.111,326.667 227.111 C 294.284 227.111,288.331 228.293,284.482 235.486 " stroke="none" fill="#000000" fill-rule="evenodd"></path></g></svg>